<?xml version="1.0" encoding="UTF-8" standalone="no"?>
<!-- Created with Inkscape (http://www.inkscape.org/) -->

<svg
   xmlns:dc="http://purl.org/dc/elements/1.1/"
   xmlns:cc="http://creativecommons.org/ns#"
   xmlns:rdf="http://www.w3.org/1999/02/22-rdf-syntax-ns#"
   xmlns:svg="http://www.w3.org/2000/svg"
   xmlns="http://www.w3.org/2000/svg"
   xmlns:sodipodi="http://sodipodi.sourceforge.net/DTD/sodipodi-0.dtd"
   xmlns:inkscape="http://www.inkscape.org/namespaces/inkscape"
   width="11.831151mm"
   height="13.16768mm"
   viewBox="0 0 11.831151 13.16768"
   version="1.1"
   id="svg8"
   inkscape:version="0.92.2 (5c3e80d, 2017-08-06)"
   sodipodi:docname="logo-v2.svg">
  <defs
     id="defs2">
    <inkscape:path-effect
       effect="bspline"
       id="path-effect902"
       is_visible="true"
       weight="33.333333"
       steps="2"
       helper_size="0"
       apply_no_weight="true"
       apply_with_weight="true"
       only_selected="false" />
    <inkscape:path-effect
       only_selected="false"
       apply_with_weight="true"
       apply_no_weight="true"
       helper_size="0"
       steps="2"
       weight="33.333333"
       is_visible="true"
       id="path-effect895"
       effect="bspline" />
    <inkscape:path-effect
       effect="bspline"
       id="path-effect889"
       is_visible="true"
       weight="33.333333"
       steps="2"
       helper_size="0"
       apply_no_weight="true"
       apply_with_weight="true"
       only_selected="false" />
    <inkscape:path-effect
       effect="bspline"
       id="path-effect885"
       is_visible="true"
       weight="33.333333"
       steps="2"
       helper_size="0"
       apply_no_weight="true"
       apply_with_weight="true"
       only_selected="false" />
    <clipPath
       clipPathUnits="userSpaceOnUse"
       id="clipPath898">
      <path
         sodipodi:nodetypes="cccc"
         inkscape:original-d="m 79.250632,190.73419 -6.886368,-3.42963 0.04548,7.16272 z"
         inkscape:path-effect="#path-effect902"
         inkscape:connector-curvature="0"
         id="path900"
         d="m 79.250632,190.73419 c 0,0 -6.886368,-3.42963 -6.886368,-3.42963 0,0 0.04548,7.16272 0.04548,7.16272 0,0 6.840888,-3.73309 6.840888,-3.73309 z"
         style="fill:none;stroke:#000000;stroke-width:0.26458332px;stroke-linecap:butt;stroke-linejoin:miter;stroke-opacity:1" />
    </clipPath>
  </defs>
  <sodipodi:namedview
     id="base"
     pagecolor="#ffffff"
     bordercolor="#666666"
     borderopacity="1.0"
     inkscape:pageopacity="0.0"
     inkscape:pageshadow="2"
     inkscape:zoom="2.8"
     inkscape:cx="52.268315"
     inkscape:cy="23.92426"
     inkscape:document-units="mm"
     inkscape:current-layer="layer1"
     showgrid="false"
     showguides="true"
     inkscape:guide-bbox="true"
     inkscape:window-width="1920"
     inkscape:window-height="991"
     inkscape:window-x="-9"
     inkscape:window-y="-9"
     inkscape:window-maximized="1"
     fit-margin-top="1"
     fit-margin-left="1"
     fit-margin-bottom="1"
     fit-margin-right="1" />
  <metadata
     id="metadata5">
    <rdf:RDF>
      <cc:Work
         rdf:about="">
        <dc:format>image/svg+xml</dc:format>
        <dc:type
           rdf:resource="http://purl.org/dc/dcmitype/StillImage" />
        <dc:title></dc:title>
      </cc:Work>
    </rdf:RDF>
  </metadata>
  <g
     inkscape:label="Layer 1"
     inkscape:groupmode="layer"
     id="layer1"
     transform="translate(-81.329613,-181.71402)">
    <g
       aria-label="c"
       style="font-style:normal;font-variant:normal;font-weight:normal;font-stretch:normal;font-size:22.42506981px;line-height:1.25;font-family:Cambria;-inkscape-font-specification:Cambria;font-variant-ligatures:normal;font-variant-caps:normal;font-variant-numeric:normal;font-feature-settings:normal;text-align:start;letter-spacing:0px;word-spacing:0px;writing-mode:lr-tb;text-anchor:start;fill:#884aaa;fill-opacity:1;stroke:none;stroke-width:0.26458332"
       id="text817-8"
       transform="translate(8.6733901,-2.5853236)">
      <path
         d="m 79.374616,196.46702 q -1.076404,0 -2.107957,-0.3588 -1.009128,-0.38122 -1.838856,-1.09883 -0.807302,-0.7176 -1.300654,-1.74915 -0.470926,-1.05398 -0.470926,-2.37706 0,-1.32308 0.470926,-2.35463 0.493352,-1.03156 1.300654,-1.74916 0.807303,-0.7176 1.816431,-1.09883 1.009128,-0.38122 2.085532,-0.38122 0.784877,0 1.480054,0.22425 0.717602,0.22425 1.233379,0.5382 0.515777,0.31395 0.740027,0.6279 0.291526,0.2691 0.493352,0.51578 0.201826,0.24667 0.13455,0.60548 -0.06728,0.22425 -0.201825,0.42607 -0.134551,0.1794 -0.336376,0.38123 -0.538202,0.60548 -1.053979,0.4485 -0.291526,-0.15698 -0.583051,-0.33638 -0.291526,-0.1794 -0.605477,-0.33637 -0.291526,-0.1794 -0.605477,-0.29153 -0.313951,-0.11212 -0.695177,-0.11212 -0.852153,0 -1.524905,0.38122 -0.650327,0.3588 -1.031553,1.00913 -0.358801,0.65033 -0.358801,1.50248 0,0.85215 0.358801,1.5249 0.381226,0.65033 1.031553,1.03156 0.650327,0.3588 1.480054,0.3588 0.403652,0 0.762453,-0.0897 0.381226,-0.11213 0.672752,-0.2691 0.291526,-0.1794 0.470926,-0.3588 0.246676,-0.15698 0.448502,-0.29153 0.201825,-0.13455 0.426076,-0.13455 0.269101,0 0.515777,0.20183 0.269101,0.1794 0.583052,0.58305 0.291525,0.33637 0.313951,0.65033 0.04485,0.31395 -0.134551,0.60547 -0.156975,0.29153 -0.538202,0.5382 -0.2691,0.2691 -0.807302,0.56063 -0.515777,0.2691 -1.210954,0.47093 -0.672752,0.20182 -1.412779,0.20182 z"
         style="font-style:normal;font-variant:normal;font-weight:normal;font-stretch:normal;font-family:Fredoka;-inkscape-font-specification:Fredoka;fill:#884aaa;fill-opacity:1;stroke-width:0.26458332"
         id="path847"
         inkscape:connector-curvature="0" />
    </g>
    <g
       aria-label="c"
       style="font-style:normal;font-variant:normal;font-weight:normal;font-stretch:normal;font-size:22.42506981px;line-height:1.25;font-family:Cambria;-inkscape-font-specification:Cambria;font-variant-ligatures:normal;font-variant-caps:normal;font-variant-numeric:normal;font-feature-settings:normal;text-align:start;letter-spacing:0px;word-spacing:0px;writing-mode:lr-tb;text-anchor:start;fill:#c6a5d8;fill-opacity:1;stroke:none;stroke-width:0.26458332"
       id="text817-8-2"
       transform="translate(8.6733901,-2.5853236)"
       clip-path="none">
      <path
         d="m 79.374616,196.46702 q -1.076404,0 -2.107957,-0.3588 -1.009128,-0.38122 -1.838856,-1.09883 -0.807302,-0.7176 -1.300654,-1.74915 -0.470926,-1.05398 -0.470926,-2.37706 0,-1.32308 0.470926,-2.35463 0.493352,-1.03156 1.300654,-1.74916 0.807303,-0.7176 1.816431,-1.09883 1.009128,-0.38122 2.085532,-0.38122 0.784877,0 1.480054,0.22425 0.717602,0.22425 1.233379,0.5382 0.515777,0.31395 0.740027,0.6279 0.291526,0.2691 0.493352,0.51578 0.201826,0.24667 0.13455,0.60548 -0.06728,0.22425 -0.201825,0.42607 -0.134551,0.1794 -0.336376,0.38123 -0.538202,0.60548 -1.053979,0.4485 -0.291526,-0.15698 -0.583051,-0.33638 -0.291526,-0.1794 -0.605477,-0.33637 -0.291526,-0.1794 -0.605477,-0.29153 -0.313951,-0.11212 -0.695177,-0.11212 -0.852153,0 -1.524905,0.38122 -0.650327,0.3588 -1.031553,1.00913 -0.358801,0.65033 -0.358801,1.50248 0,0.85215 0.358801,1.5249 0.381226,0.65033 1.031553,1.03156 0.650327,0.3588 1.480054,0.3588 0.403652,0 0.762453,-0.0897 0.381226,-0.11213 0.672752,-0.2691 0.291526,-0.1794 0.470926,-0.3588 0.246676,-0.15698 0.448502,-0.29153 0.201825,-0.13455 0.426076,-0.13455 0.269101,0 0.515777,0.20183 0.269101,0.1794 0.583052,0.58305 0.291525,0.33637 0.313951,0.65033 0.04485,0.31395 -0.134551,0.60547 -0.156975,0.29153 -0.538202,0.5382 -0.2691,0.2691 -0.807302,0.56063 -0.515777,0.2691 -1.210954,0.47093 -0.672752,0.20182 -1.412779,0.20182 z"
         style="font-style:normal;font-variant:normal;font-weight:normal;font-stretch:normal;font-family:Fredoka;-inkscape-font-specification:Fredoka;fill:#c6a5d8;fill-opacity:1;stroke-width:0.26458332"
         id="path847-7"
         inkscape:connector-curvature="0"
         clip-path="url(#clipPath898)" />
    </g>
  </g>
</svg>
