<?xml version="1.0" encoding="UTF-8"?>
<svg xmlns="http://www.w3.org/2000/svg" xmlns:xlink="http://www.w3.org/1999/xlink" width="45px" height="45px" viewBox="0 0 45 45" version="1.1">
<g id="surface1">
<path style=" stroke:none;fill-rule:nonzero;fill:rgb(99.607843%,99.607843%,99.607843%);fill-opacity:1;" d="M 11.515625 -0.0703125 C 11.613281 -0.0703125 11.710938 -0.0703125 11.8125 -0.0703125 C 12.082031 -0.0742188 12.351562 -0.0742188 12.621094 -0.0703125 C 12.910156 -0.0703125 13.203125 -0.0742188 13.492188 -0.0742188 C 14.0625 -0.078125 14.632812 -0.078125 15.203125 -0.078125 C 15.667969 -0.078125 16.128906 -0.078125 16.59375 -0.078125 C 16.691406 -0.078125 16.691406 -0.078125 16.792969 -0.078125 C 16.929688 -0.078125 17.0625 -0.078125 17.195312 -0.078125 C 18.453125 -0.0820312 19.714844 -0.078125 20.972656 -0.078125 C 22.121094 -0.0742188 23.269531 -0.078125 24.417969 -0.0820312 C 25.601562 -0.0859375 26.78125 -0.0859375 27.964844 -0.0859375 C 28.097656 -0.0859375 28.230469 -0.0859375 28.367188 -0.0859375 C 28.464844 -0.0859375 28.464844 -0.0859375 28.566406 -0.0859375 C 29.027344 -0.0859375 29.488281 -0.0859375 29.953125 -0.0898438 C 30.515625 -0.0898438 31.082031 -0.0898438 31.644531 -0.0898438 C 31.933594 -0.0859375 32.21875 -0.0859375 32.507812 -0.0898438 C 33.746094 -0.0976562 34.710938 -0.078125 35.722656 0.6875 C 35.875 0.785156 36.023438 0.882812 36.175781 0.976562 C 38.339844 2.34375 40.453125 4.15625 42.011719 6.1875 C 42.09375 6.292969 42.175781 6.394531 42.257812 6.5 C 43.257812 7.746094 44.082031 9.070312 44.847656 10.46875 C 44.875 10.511719 44.898438 10.558594 44.925781 10.605469 C 45.011719 10.800781 45.019531 10.945312 45.019531 11.15625 C 45.023438 11.273438 45.023438 11.273438 45.023438 11.394531 C 45.023438 11.480469 45.023438 11.566406 45.023438 11.652344 C 45.023438 11.746094 45.023438 11.835938 45.023438 11.929688 C 45.027344 12.183594 45.027344 12.433594 45.027344 12.6875 C 45.027344 12.960938 45.03125 13.234375 45.03125 13.507812 C 45.035156 14.164062 45.035156 14.824219 45.039062 15.484375 C 45.039062 15.730469 45.039062 15.980469 45.039062 16.230469 C 45.042969 17.324219 45.046875 18.421875 45.046875 19.515625 C 45.046875 19.785156 45.050781 20.050781 45.050781 20.320312 C 45.050781 20.386719 45.050781 20.453125 45.050781 20.523438 C 45.050781 21.601562 45.054688 22.679688 45.0625 23.757812 C 45.066406 24.867188 45.070312 25.972656 45.070312 27.082031 C 45.070312 27.703125 45.074219 28.324219 45.078125 28.945312 C 45.082031 29.476562 45.082031 30.007812 45.082031 30.535156 C 45.082031 30.804688 45.082031 31.074219 45.085938 31.34375 C 45.097656 32.589844 45.03125 33.496094 44.308594 34.53125 C 44.230469 34.664062 44.152344 34.796875 44.078125 34.929688 C 44.007812 35.039062 43.9375 35.144531 43.871094 35.253906 C 43.832031 35.3125 43.792969 35.375 43.753906 35.433594 C 43.066406 36.492188 42.316406 37.492188 41.472656 38.429688 C 41.421875 38.488281 41.371094 38.542969 41.320312 38.601562 C 40.421875 39.605469 39.480469 40.59375 38.40625 41.410156 C 38.292969 41.503906 38.292969 41.503906 38.175781 41.597656 C 37.15625 42.425781 36.054688 43.140625 34.917969 43.796875 C 34.863281 43.828125 34.804688 43.863281 34.746094 43.898438 C 34.625 43.964844 34.5 44.035156 34.375 44.097656 C 34.234375 44.171875 34.09375 44.246094 33.957031 44.324219 C 32.804688 44.984375 31.835938 45.113281 30.523438 45.101562 C 30.328125 45.101562 30.136719 45.105469 29.941406 45.105469 C 29.476562 45.109375 29.007812 45.109375 28.539062 45.109375 C 28.160156 45.105469 27.78125 45.105469 27.398438 45.109375 C 27.316406 45.109375 27.316406 45.109375 27.234375 45.109375 C 27.125 45.109375 27.011719 45.109375 26.902344 45.109375 C 25.867188 45.113281 24.832031 45.109375 23.796875 45.105469 C 22.910156 45.105469 22.027344 45.105469 21.144531 45.109375 C 20.113281 45.117188 19.082031 45.121094 18.050781 45.117188 C 17.9375 45.117188 17.828125 45.117188 17.71875 45.117188 C 17.636719 45.117188 17.636719 45.117188 17.554688 45.117188 C 17.175781 45.117188 16.796875 45.117188 16.417969 45.121094 C 15.90625 45.125 15.394531 45.121094 14.878906 45.117188 C 14.695312 45.117188 14.507812 45.117188 14.320312 45.121094 C 12.898438 45.136719 11.886719 44.78125 10.65625 44.082031 C 10.511719 44.003906 10.371094 43.925781 10.226562 43.847656 C 8.585938 42.9375 7.0625 41.824219 5.671875 40.570312 C 5.625 40.527344 5.578125 40.484375 5.527344 40.4375 C 4.550781 39.558594 3.644531 38.625 2.835938 37.589844 C 2.800781 37.542969 2.765625 37.5 2.730469 37.453125 C 1.882812 36.363281 1.121094 35.21875 0.46875 34 C 0.386719 33.84375 0.386719 33.84375 0.285156 33.699219 C -0.0234375 33.214844 -0.0546875 32.804688 -0.0507812 32.238281 C -0.0546875 32.148438 -0.0546875 32.058594 -0.0546875 31.964844 C -0.0585938 31.714844 -0.0585938 31.464844 -0.0585938 31.214844 C -0.0585938 30.945312 -0.0625 30.675781 -0.0625 30.40625 C -0.0664062 29.816406 -0.0664062 29.226562 -0.0703125 28.640625 C -0.0703125 28.269531 -0.0703125 27.902344 -0.0703125 27.53125 C -0.0742188 26.507812 -0.078125 25.484375 -0.078125 24.460938 C -0.078125 24.398438 -0.078125 24.332031 -0.078125 24.265625 C -0.078125 24.132812 -0.078125 24 -0.078125 23.867188 C -0.078125 23.800781 -0.078125 23.734375 -0.078125 23.667969 C -0.078125 23.601562 -0.078125 23.535156 -0.078125 23.46875 C -0.078125 22.402344 -0.0859375 21.335938 -0.0898438 20.269531 C -0.0976562 19.175781 -0.101562 18.078125 -0.101562 16.980469 C -0.101562 16.367188 -0.105469 15.75 -0.109375 15.136719 C -0.113281 14.613281 -0.113281 14.089844 -0.113281 13.566406 C -0.109375 13.300781 -0.109375 13.03125 -0.113281 12.765625 C -0.132812 11.324219 0.109375 10.367188 0.921875 9.167969 C 0.976562 9.078125 1.035156 8.984375 1.089844 8.894531 C 1.214844 8.695312 1.339844 8.507812 1.472656 8.316406 C 1.515625 8.253906 1.5625 8.1875 1.605469 8.117188 C 2.351562 7.03125 3.171875 6.015625 4.0625 5.042969 C 4.160156 4.933594 4.160156 4.933594 4.257812 4.824219 C 4.773438 4.246094 5.324219 3.71875 5.902344 3.207031 C 5.941406 3.175781 5.980469 3.140625 6.023438 3.101562 C 7.0625 2.179688 8.214844 1.371094 9.402344 0.648438 C 9.53125 0.566406 9.65625 0.484375 9.78125 0.402344 C 10.371094 0.0195312 10.820312 -0.078125 11.515625 -0.0703125 Z M 11.515625 -0.0703125 "/>
<path style=" stroke:none;fill-rule:nonzero;fill:rgb(0%,50.196081%,0%);fill-opacity:1;" d="M 25.988281 0 C 27.078125 -0.015625 28.164062 -0.0273438 29.253906 -0.0351562 C 29.757812 -0.0390625 30.265625 -0.0429688 30.769531 -0.0507812 C 31.257812 -0.0585938 31.746094 -0.0625 32.234375 -0.0664062 C 32.421875 -0.0664062 32.605469 -0.0703125 32.792969 -0.0742188 C 33.875 -0.09375 34.699219 -0.0546875 35.59375 0.59375 C 35.78125 0.730469 35.980469 0.851562 36.175781 0.976562 C 38.339844 2.351562 40.453125 4.15625 42.011719 6.1875 C 42.09375 6.292969 42.175781 6.394531 42.257812 6.5 C 43.257812 7.746094 44.082031 9.070312 44.847656 10.46875 C 44.875 10.515625 44.90625 10.5625 44.933594 10.613281 C 45.019531 10.820312 45.015625 10.980469 45.015625 11.203125 C 45.015625 11.285156 45.015625 11.367188 45.011719 11.449219 C 45.011719 11.535156 45.011719 11.621094 45.007812 11.707031 C 45.007812 11.792969 45.007812 11.878906 45.007812 11.96875 C 45.003906 12.179688 45.003906 12.394531 45 12.605469 C 44.914062 12.5625 44.828125 12.519531 44.742188 12.476562 C 44.628906 12.417969 44.519531 12.363281 44.40625 12.304688 C 44.351562 12.277344 44.292969 12.25 44.238281 12.21875 C 44.183594 12.191406 44.128906 12.164062 44.070312 12.136719 C 44.023438 12.109375 43.972656 12.085938 43.921875 12.058594 C 43.390625 11.828125 42.667969 11.816406 42.117188 11.976562 C 41.9375 12.070312 41.785156 12.175781 41.625 12.300781 C 41.566406 12.347656 41.503906 12.394531 41.4375 12.441406 C 40.707031 13.046875 40.183594 13.832031 39.632812 14.59375 C 39.546875 14.710938 39.460938 14.828125 39.375 14.945312 C 39.210938 15.171875 39.050781 15.398438 38.886719 15.625 C 38.628906 15.984375 38.363281 16.339844 38.101562 16.695312 C 37.753906 17.164062 37.40625 17.632812 37.066406 18.105469 C 36.679688 18.640625 36.289062 19.171875 35.894531 19.703125 C 35.59375 20.113281 35.292969 20.523438 34.996094 20.933594 C 34.652344 21.40625 34.308594 21.878906 33.960938 22.347656 C 33.480469 22.992188 33.007812 23.644531 32.539062 24.296875 C 32.296875 24.628906 32.054688 24.957031 31.8125 25.289062 C 31.484375 25.175781 31.25 25.007812 30.976562 24.792969 C 30.632812 24.523438 30.285156 24.261719 29.925781 24.007812 C 29.496094 23.707031 29.074219 23.398438 28.652344 23.085938 C 27.945312 22.566406 27.238281 22.054688 26.523438 21.546875 C 25.757812 20.996094 24.992188 20.441406 24.234375 19.882812 C 23.824219 19.582031 23.410156 19.28125 23 18.984375 C 22.460938 18.601562 21.929688 18.210938 21.398438 17.820312 C 20.988281 17.519531 20.574219 17.21875 20.160156 16.921875 C 19.625 16.539062 19.09375 16.148438 18.5625 15.757812 C 18.253906 15.53125 17.941406 15.304688 17.628906 15.078125 C 17.535156 15.011719 17.535156 15.011719 17.4375 14.941406 C 17.316406 14.859375 17.199219 14.773438 17.078125 14.6875 C 16.808594 14.496094 16.554688 14.304688 16.328125 14.058594 C 16.796875 13.398438 17.273438 12.746094 17.753906 12.09375 C 18.0625 11.683594 18.367188 11.265625 18.667969 10.847656 C 19.054688 10.3125 19.445312 9.78125 19.835938 9.253906 C 20.140625 8.84375 20.4375 8.433594 20.738281 8.023438 C 21.125 7.488281 21.515625 6.957031 21.90625 6.425781 C 22.25 5.960938 22.589844 5.492188 22.929688 5.023438 C 23.1875 4.667969 23.449219 4.3125 23.710938 3.960938 C 23.890625 3.71875 24.070312 3.476562 24.246094 3.230469 C 24.332031 3.117188 24.417969 3 24.503906 2.886719 C 25.152344 2.023438 25.824219 1.089844 25.988281 0 Z M 25.988281 0 "/>
<path style=" stroke:none;fill-rule:nonzero;fill:rgb(0%,50.196081%,0%);fill-opacity:1;" d="M 12.417969 19.40625 C 12.65625 19.453125 12.8125 19.527344 13.007812 19.667969 C 13.058594 19.707031 13.113281 19.746094 13.167969 19.789062 C 13.253906 19.851562 13.253906 19.851562 13.34375 19.917969 C 13.40625 19.960938 13.464844 20.003906 13.527344 20.050781 C 13.71875 20.191406 13.914062 20.332031 14.105469 20.476562 C 14.226562 20.566406 14.351562 20.65625 14.472656 20.746094 C 14.652344 20.878906 14.835938 21.011719 15.015625 21.144531 C 15.425781 21.445312 15.839844 21.746094 16.253906 22.042969 C 16.726562 22.382812 17.199219 22.726562 17.671875 23.074219 C 18.371094 23.585938 19.074219 24.09375 19.777344 24.601562 C 20.546875 25.152344 21.308594 25.703125 22.070312 26.265625 C 22.480469 26.566406 22.890625 26.863281 23.304688 27.160156 C 23.78125 27.5 24.253906 27.84375 24.722656 28.191406 C 25.777344 28.964844 26.839844 29.726562 27.90625 30.484375 C 27.777344 30.765625 27.601562 31.007812 27.421875 31.257812 C 27.386719 31.304688 27.355469 31.351562 27.320312 31.398438 C 27.246094 31.5 27.171875 31.597656 27.101562 31.699219 C 26.984375 31.859375 26.867188 32.023438 26.75 32.183594 C 26.277344 32.839844 25.796875 33.492188 25.316406 34.144531 C 25.011719 34.550781 24.714844 34.960938 24.417969 35.375 C 23.855469 36.152344 23.28125 36.925781 22.710938 37.695312 C 22.1875 38.402344 21.664062 39.109375 21.152344 39.820312 C 20.9375 40.117188 20.722656 40.410156 20.5 40.703125 C 19.277344 42.207031 19.277344 42.207031 18.761719 44.003906 C 18.761719 44.09375 18.761719 44.183594 18.761719 44.277344 C 18.78125 44.542969 18.847656 44.75 18.933594 45 C 18.140625 45.023438 17.34375 45.039062 16.546875 45.046875 C 16.175781 45.050781 15.804688 45.058594 15.433594 45.070312 C 13.734375 45.117188 12.324219 45.144531 10.847656 44.203125 C 10.585938 44.039062 10.316406 43.890625 10.042969 43.742188 C 8.46875 42.867188 7.007812 41.777344 5.671875 40.570312 C 5.625 40.527344 5.578125 40.484375 5.527344 40.4375 C 4.550781 39.558594 3.644531 38.625 2.835938 37.589844 C 2.785156 37.523438 2.785156 37.523438 2.730469 37.453125 C 1.90625 36.394531 1.171875 35.289062 0.53125 34.113281 C 0.394531 33.855469 0.394531 33.855469 0.253906 33.667969 C -0.148438 33.097656 -0.03125 32.371094 0 31.707031 C 0.0625 31.738281 0.125 31.773438 0.1875 31.804688 C 0.957031 32.179688 1.757812 32.371094 2.597656 32.089844 C 2.769531 32 2.914062 31.902344 3.066406 31.78125 C 3.140625 31.730469 3.21875 31.675781 3.296875 31.621094 C 4.335938 30.699219 5.101562 29.367188 5.910156 28.25 C 6.257812 27.773438 6.605469 27.296875 6.957031 26.824219 C 7.261719 26.417969 7.558594 26.007812 7.859375 25.59375 C 8.242188 25.058594 8.636719 24.527344 9.027344 23.996094 C 9.332031 23.589844 9.628906 23.179688 9.925781 22.765625 C 10.746094 21.636719 11.578125 20.519531 12.417969 19.40625 Z M 12.417969 19.40625 "/>
<path style=" stroke:none;fill-rule:nonzero;fill:rgb(0%,50.196081%,0%);fill-opacity:1;" d="M 44.921875 19.636719 C 44.949219 19.636719 44.972656 19.636719 45 19.636719 C 45.015625 21.386719 45.027344 23.136719 45.035156 24.886719 C 45.039062 25.699219 45.042969 26.511719 45.050781 27.324219 C 45.058594 28.035156 45.0625 28.746094 45.066406 29.453125 C 45.066406 29.828125 45.066406 30.203125 45.074219 30.578125 C 45.078125 30.933594 45.078125 31.285156 45.078125 31.640625 C 45.078125 31.769531 45.078125 31.898438 45.082031 32.027344 C 45.101562 33.027344 44.835938 33.691406 44.308594 34.53125 C 44.230469 34.664062 44.152344 34.796875 44.078125 34.929688 C 44.007812 35.039062 43.9375 35.144531 43.871094 35.253906 C 43.832031 35.3125 43.792969 35.375 43.753906 35.433594 C 43.066406 36.492188 42.316406 37.492188 41.472656 38.429688 C 41.421875 38.488281 41.371094 38.542969 41.320312 38.601562 C 40.421875 39.605469 39.480469 40.59375 38.40625 41.410156 C 38.292969 41.503906 38.292969 41.503906 38.175781 41.597656 C 37.15625 42.425781 36.054688 43.140625 34.917969 43.796875 C 34.863281 43.828125 34.804688 43.863281 34.746094 43.898438 C 34.617188 43.96875 34.488281 44.039062 34.359375 44.105469 C 34.167969 44.207031 33.996094 44.3125 33.816406 44.433594 C 32.5 45.234375 31.039062 45.089844 29.550781 45.050781 C 29.191406 45.042969 28.832031 45.042969 28.472656 45.039062 C 27.773438 45.027344 27.070312 45.015625 26.371094 45 C 26.457031 44.867188 26.542969 44.730469 26.628906 44.597656 C 26.675781 44.519531 26.722656 44.445312 26.773438 44.367188 C 26.929688 44.125 27.097656 43.902344 27.277344 43.675781 C 27.539062 43.34375 27.792969 43.007812 28.039062 42.660156 C 28.34375 42.234375 28.652344 41.8125 28.964844 41.390625 C 29.316406 40.914062 29.667969 40.4375 30.011719 39.957031 C 30.398438 39.421875 30.789062 38.890625 31.183594 38.359375 C 31.484375 37.953125 31.785156 37.542969 32.082031 37.128906 C 32.46875 36.597656 32.859375 36.066406 33.253906 35.535156 C 33.554688 35.125 33.855469 34.714844 34.152344 34.304688 C 34.539062 33.769531 34.929688 33.238281 35.324219 32.707031 C 35.625 32.300781 35.925781 31.890625 36.222656 31.476562 C 36.785156 30.699219 37.355469 29.925781 37.929688 29.15625 C 38.453125 28.449219 38.972656 27.742188 39.488281 27.027344 C 39.835938 26.550781 40.183594 26.074219 40.535156 25.601562 C 40.839844 25.195312 41.136719 24.785156 41.433594 24.371094 C 41.820312 23.835938 42.210938 23.304688 42.605469 22.777344 C 42.910156 22.363281 43.214844 21.949219 43.515625 21.53125 C 43.847656 21.070312 44.179688 20.613281 44.519531 20.160156 C 44.558594 20.105469 44.601562 20.054688 44.640625 20 C 44.734375 19.875 44.828125 19.753906 44.921875 19.636719 Z M 44.921875 19.636719 "/>
<path style=" stroke:none;fill-rule:nonzero;fill:rgb(0%,50.196081%,0%);fill-opacity:1;" d="M 12.152344 -0.0507812 C 12.308594 -0.0507812 12.46875 -0.0507812 12.628906 -0.0507812 C 13.042969 -0.046875 13.457031 -0.0429688 13.871094 -0.0351562 C 14.292969 -0.03125 14.71875 -0.0273438 15.144531 -0.0273438 C 15.972656 -0.0195312 16.800781 -0.0117188 17.632812 0 C 17.558594 0.109375 17.488281 0.21875 17.414062 0.324219 C 17.375 0.386719 17.335938 0.445312 17.292969 0.507812 C 17.121094 0.765625 16.933594 1.011719 16.746094 1.253906 C 16.414062 1.695312 16.085938 2.136719 15.761719 2.582031 C 15.417969 3.0625 15.070312 3.539062 14.71875 4.011719 C 14.371094 4.480469 14.027344 4.949219 13.683594 5.425781 C 13.296875 5.960938 12.90625 6.492188 12.511719 7.019531 C 12.210938 7.429688 11.910156 7.839844 11.613281 8.25 C 11.050781 9.03125 10.480469 9.800781 9.90625 10.574219 C 9.382812 11.28125 8.863281 11.988281 8.347656 12.699219 C 8.003906 13.179688 7.652344 13.652344 7.300781 14.125 C 7 14.535156 6.699219 14.945312 6.402344 15.355469 C 6.015625 15.890625 5.625 16.421875 5.230469 16.953125 C 4.929688 17.359375 4.628906 17.773438 4.332031 18.183594 C 3.945312 18.71875 3.554688 19.25 3.160156 19.78125 C 2.859375 20.1875 2.558594 20.597656 2.261719 21.011719 C 1.867188 21.554688 1.46875 22.101562 1.066406 22.640625 C 0.765625 23.042969 0.472656 23.449219 0.179688 23.855469 C 0.144531 23.902344 0.113281 23.945312 0.078125 23.988281 C 0.0507812 23.988281 0.0273438 23.988281 0 23.988281 C -0.0234375 22.304688 -0.0390625 20.621094 -0.046875 18.9375 C -0.0507812 18.15625 -0.0585938 17.371094 -0.0703125 16.589844 C -0.078125 15.90625 -0.0859375 15.226562 -0.0859375 14.542969 C -0.0859375 14.179688 -0.0898438 13.820312 -0.0976562 13.460938 C -0.128906 11.804688 -0.101562 10.554688 0.921875 9.167969 C 1.023438 9.007812 1.121094 8.847656 1.21875 8.683594 C 1.304688 8.5625 1.386719 8.441406 1.472656 8.316406 C 1.515625 8.253906 1.5625 8.1875 1.605469 8.117188 C 2.351562 7.03125 3.171875 6.015625 4.0625 5.042969 C 4.160156 4.933594 4.160156 4.933594 4.257812 4.824219 C 4.773438 4.246094 5.324219 3.71875 5.902344 3.207031 C 5.941406 3.175781 5.980469 3.140625 6.023438 3.101562 C 7.0625 2.183594 8.210938 1.359375 9.40625 0.648438 C 9.585938 0.535156 9.585938 0.535156 9.757812 0.398438 C 10.511719 -0.128906 11.261719 -0.0703125 12.152344 -0.0507812 Z M 12.152344 -0.0507812 "/>
</g>
</svg>
